<svg width="38" height="38" viewBox="0 0 38 38" fill="none" xmlns="http://www.w3.org/2000/svg">
<g clip-path="url(#clip0_3661_76)">
<path d="M36.2314 0H1.76958C0.419628 0 0 0.421381 0 1.77038V36.2287C0 37.5787 0.419628 38 1.76958 38H36.2314C37.5804 38 38 37.5787 38 36.2287V1.77133C38 0.421381 37.5813 0 36.2314 0Z" fill="#0046FE"/>
<path fill-rule="evenodd" clip-rule="evenodd" d="M7.74075 19.2788C7.74075 27.0202 13.3809 32.6021 21.136 32.6021C24.2879 32.6021 26.942 31.828 29.6791 30.0352L27.3568 25.3089C25.6564 26.2868 24.2879 26.6535 22.5461 26.6535C18.0257 26.6535 14.708 24.2088 14.708 19.1567C14.708 14.1043 18.1086 11.6597 22.4216 11.6597C24.1219 11.6597 25.4906 11.945 27.3568 12.7598L29.5547 7.42239C26.6932 6.11857 24.5781 5.62964 21.758 5.62964C13.6297 5.62964 7.74075 11.3745 7.74075 19.2788Z" fill="white"/>
</g>
<defs>
<clipPath id="clip0_3661_76">
<rect width="38" height="38" fill="white"/>
</clipPath>
</defs>
</svg>
